<svg width="19" height="18" viewBox="0 0 19 18" fill="none" xmlns="http://www.w3.org/2000/svg">
<path d="M2.3335 16H3.7585L13.5335 6.225L12.1085 4.8L2.3335 14.575V16ZM0.333496 18V13.75L13.5335 0.575C13.7335 0.391667 13.9545 0.25 14.1965 0.15C14.4385 0.0500001 14.6925 0 14.9585 0C15.2245 0 15.4828 0.0500001 15.7335 0.15C15.9842 0.25 16.2008 0.4 16.3835 0.6L17.7585 2C17.9585 2.18333 18.1045 2.4 18.1965 2.65C18.2885 2.9 18.3342 3.15 18.3335 3.4C18.3335 3.66667 18.2878 3.921 18.1965 4.163C18.1052 4.405 17.9592 4.62567 17.7585 4.825L4.5835 18H0.333496ZM12.8085 5.525L12.1085 4.8L13.5335 6.225L12.8085 5.525Z" fill="#E9EAEC" fill-opacity="0.75"/>
</svg>
